<mxfile host="app.diagrams.net" modified="2024-04-19T09:56:06.810Z" agent="Mozilla/5.0 (Windows NT 10.0; Win64; x64) AppleWebKit/537.36 (KHTML, like Gecko) Chrome/120.0.0.0 YaBrowser/24.1.0.0 Safari/537.36" etag="aZraBawvmbEft7IYTnv6" version="24.2.5" type="device">
  <diagram name="Страница — 1" id="8DGcBzErE-UYKhVBDES7">
    <mxGraphModel dx="1386" dy="791" grid="1" gridSize="10" guides="1" tooltips="1" connect="1" arrows="1" fold="1" page="1" pageScale="1" pageWidth="827" pageHeight="1169" math="0" shadow="0">
      <root>
        <mxCell id="0" />
        <mxCell id="1" parent="0" />
        <mxCell id="wqS2Rq6UqGBICWVMVH8m-8" style="edgeStyle=orthogonalEdgeStyle;rounded=0;orthogonalLoop=1;jettySize=auto;html=1;entryX=0.5;entryY=0;entryDx=0;entryDy=0;" parent="1" source="wqS2Rq6UqGBICWVMVH8m-1" target="wqS2Rq6UqGBICWVMVH8m-7" edge="1">
          <mxGeometry relative="1" as="geometry" />
        </mxCell>
        <mxCell id="wqS2Rq6UqGBICWVMVH8m-11" value="Готов" style="edgeLabel;html=1;align=center;verticalAlign=middle;resizable=0;points=[];" parent="wqS2Rq6UqGBICWVMVH8m-8" vertex="1" connectable="0">
          <mxGeometry x="-0.1619" relative="1" as="geometry">
            <mxPoint as="offset" />
          </mxGeometry>
        </mxCell>
        <mxCell id="wqS2Rq6UqGBICWVMVH8m-12" style="edgeStyle=orthogonalEdgeStyle;rounded=0;orthogonalLoop=1;jettySize=auto;html=1;entryX=0.5;entryY=0;entryDx=0;entryDy=0;" parent="1" source="wqS2Rq6UqGBICWVMVH8m-1" target="wqS2Rq6UqGBICWVMVH8m-6" edge="1">
          <mxGeometry relative="1" as="geometry" />
        </mxCell>
        <mxCell id="wqS2Rq6UqGBICWVMVH8m-13" value="Не готов" style="edgeLabel;html=1;align=center;verticalAlign=middle;resizable=0;points=[];" parent="wqS2Rq6UqGBICWVMVH8m-12" vertex="1" connectable="0">
          <mxGeometry x="0.0286" y="1" relative="1" as="geometry">
            <mxPoint x="14" y="-1" as="offset" />
          </mxGeometry>
        </mxCell>
        <mxCell id="wqS2Rq6UqGBICWVMVH8m-1" value="ReceiveAgree" style="rounded=1;whiteSpace=wrap;html=1;" parent="1" vertex="1">
          <mxGeometry x="360" y="90" width="80" height="30" as="geometry" />
        </mxCell>
        <mxCell id="wqS2Rq6UqGBICWVMVH8m-4" style="edgeStyle=orthogonalEdgeStyle;rounded=0;orthogonalLoop=1;jettySize=auto;html=1;entryX=0.5;entryY=0;entryDx=0;entryDy=0;" parent="1" source="wqS2Rq6UqGBICWVMVH8m-2" target="wqS2Rq6UqGBICWVMVH8m-1" edge="1">
          <mxGeometry relative="1" as="geometry" />
        </mxCell>
        <mxCell id="wqS2Rq6UqGBICWVMVH8m-2" value="Start" style="rounded=1;whiteSpace=wrap;html=1;" parent="1" vertex="1">
          <mxGeometry x="360" y="10" width="80" height="30" as="geometry" />
        </mxCell>
        <mxCell id="wqS2Rq6UqGBICWVMVH8m-32" style="edgeStyle=orthogonalEdgeStyle;rounded=0;orthogonalLoop=1;jettySize=auto;html=1;entryX=0.5;entryY=0;entryDx=0;entryDy=0;" parent="1" source="wqS2Rq6UqGBICWVMVH8m-6" target="wqS2Rq6UqGBICWVMVH8m-30" edge="1">
          <mxGeometry relative="1" as="geometry" />
        </mxCell>
        <mxCell id="wqS2Rq6UqGBICWVMVH8m-41" value="Нет" style="edgeLabel;html=1;align=center;verticalAlign=middle;resizable=0;points=[];" parent="wqS2Rq6UqGBICWVMVH8m-32" vertex="1" connectable="0">
          <mxGeometry x="-0.4737" y="-3" relative="1" as="geometry">
            <mxPoint as="offset" />
          </mxGeometry>
        </mxCell>
        <mxCell id="wqS2Rq6UqGBICWVMVH8m-52" style="edgeStyle=orthogonalEdgeStyle;rounded=0;orthogonalLoop=1;jettySize=auto;html=1;entryX=0.5;entryY=1;entryDx=0;entryDy=0;" parent="1" source="wqS2Rq6UqGBICWVMVH8m-6" target="wqS2Rq6UqGBICWVMVH8m-1" edge="1">
          <mxGeometry relative="1" as="geometry" />
        </mxCell>
        <mxCell id="wqS2Rq6UqGBICWVMVH8m-53" value="Да" style="edgeLabel;html=1;align=center;verticalAlign=middle;resizable=0;points=[];" parent="wqS2Rq6UqGBICWVMVH8m-52" vertex="1" connectable="0">
          <mxGeometry x="-0.8213" y="1" relative="1" as="geometry">
            <mxPoint as="offset" />
          </mxGeometry>
        </mxCell>
        <mxCell id="wqS2Rq6UqGBICWVMVH8m-54" value="1ч" style="edgeLabel;html=1;align=center;verticalAlign=middle;resizable=0;points=[];" parent="wqS2Rq6UqGBICWVMVH8m-52" vertex="1" connectable="0">
          <mxGeometry x="-0.0383" y="-1" relative="1" as="geometry">
            <mxPoint as="offset" />
          </mxGeometry>
        </mxCell>
        <mxCell id="wqS2Rq6UqGBICWVMVH8m-6" value="OneHourOk" style="rounded=1;whiteSpace=wrap;html=1;" parent="1" vertex="1">
          <mxGeometry x="130" y="150" width="80" height="40" as="geometry" />
        </mxCell>
        <mxCell id="wqS2Rq6UqGBICWVMVH8m-24" style="edgeStyle=orthogonalEdgeStyle;rounded=0;orthogonalLoop=1;jettySize=auto;html=1;entryX=0.5;entryY=0;entryDx=0;entryDy=0;" parent="1" source="wqS2Rq6UqGBICWVMVH8m-7" target="wqS2Rq6UqGBICWVMVH8m-21" edge="1">
          <mxGeometry relative="1" as="geometry" />
        </mxCell>
        <mxCell id="wqS2Rq6UqGBICWVMVH8m-7" value="ReceiveEnergy" style="rounded=1;whiteSpace=wrap;html=1;" parent="1" vertex="1">
          <mxGeometry x="470" y="130" width="100" height="30" as="geometry" />
        </mxCell>
        <mxCell id="wqS2Rq6UqGBICWVMVH8m-14" value="Готов начинать?" style="text;html=1;align=center;verticalAlign=middle;whiteSpace=wrap;rounded=0;" parent="1" vertex="1">
          <mxGeometry x="450" y="10" width="60" height="30" as="geometry" />
        </mxCell>
        <mxCell id="wqS2Rq6UqGBICWVMVH8m-20" value="energy" style="text;html=1;align=center;verticalAlign=middle;whiteSpace=wrap;rounded=0;" parent="1" vertex="1">
          <mxGeometry x="520" y="170" width="60" height="30" as="geometry" />
        </mxCell>
        <mxCell id="wqS2Rq6UqGBICWVMVH8m-26" style="edgeStyle=orthogonalEdgeStyle;rounded=0;orthogonalLoop=1;jettySize=auto;html=1;entryX=0.5;entryY=0;entryDx=0;entryDy=0;" parent="1" source="wqS2Rq6UqGBICWVMVH8m-21" target="wqS2Rq6UqGBICWVMVH8m-25" edge="1">
          <mxGeometry relative="1" as="geometry" />
        </mxCell>
        <mxCell id="wqS2Rq6UqGBICWVMVH8m-21" value="ReceiveEmotions" style="rounded=1;whiteSpace=wrap;html=1;" parent="1" vertex="1">
          <mxGeometry x="470" y="210" width="100" height="30" as="geometry" />
        </mxCell>
        <mxCell id="wqS2Rq6UqGBICWVMVH8m-22" value="energy&lt;br&gt;emotions" style="text;html=1;align=center;verticalAlign=middle;whiteSpace=wrap;rounded=0;" parent="1" vertex="1">
          <mxGeometry x="530" y="250" width="60" height="30" as="geometry" />
        </mxCell>
        <mxCell id="wqS2Rq6UqGBICWVMVH8m-44" style="edgeStyle=orthogonalEdgeStyle;rounded=0;orthogonalLoop=1;jettySize=auto;html=1;entryX=0.75;entryY=1;entryDx=0;entryDy=0;" parent="1" source="wqS2Rq6UqGBICWVMVH8m-25" target="wqS2Rq6UqGBICWVMVH8m-1" edge="1">
          <mxGeometry relative="1" as="geometry" />
        </mxCell>
        <mxCell id="wqS2Rq6UqGBICWVMVH8m-45" value="24ч" style="edgeLabel;html=1;align=center;verticalAlign=middle;resizable=0;points=[];" parent="wqS2Rq6UqGBICWVMVH8m-44" vertex="1" connectable="0">
          <mxGeometry x="0.2511" relative="1" as="geometry">
            <mxPoint as="offset" />
          </mxGeometry>
        </mxCell>
        <mxCell id="wqS2Rq6UqGBICWVMVH8m-57" style="edgeStyle=orthogonalEdgeStyle;rounded=0;orthogonalLoop=1;jettySize=auto;html=1;entryX=0;entryY=0.5;entryDx=0;entryDy=0;" parent="1" source="wqS2Rq6UqGBICWVMVH8m-25" target="wqS2Rq6UqGBICWVMVH8m-55" edge="1">
          <mxGeometry relative="1" as="geometry" />
        </mxCell>
        <mxCell id="wqS2Rq6UqGBICWVMVH8m-25" value="ReceiveReflection" style="rounded=1;whiteSpace=wrap;html=1;" parent="1" vertex="1">
          <mxGeometry x="470" y="290" width="100" height="30" as="geometry" />
        </mxCell>
        <mxCell id="wqS2Rq6UqGBICWVMVH8m-46" style="edgeStyle=orthogonalEdgeStyle;rounded=0;orthogonalLoop=1;jettySize=auto;html=1;exitX=1;exitY=0;exitDx=0;exitDy=0;entryX=0.5;entryY=1;entryDx=0;entryDy=0;" parent="1" source="wqS2Rq6UqGBICWVMVH8m-30" target="wqS2Rq6UqGBICWVMVH8m-1" edge="1">
          <mxGeometry relative="1" as="geometry" />
        </mxCell>
        <mxCell id="wqS2Rq6UqGBICWVMVH8m-47" value="24ч" style="edgeLabel;html=1;align=center;verticalAlign=middle;resizable=0;points=[];" parent="wqS2Rq6UqGBICWVMVH8m-46" vertex="1" connectable="0">
          <mxGeometry x="-0.2" y="-3" relative="1" as="geometry">
            <mxPoint x="35" y="-8" as="offset" />
          </mxGeometry>
        </mxCell>
        <mxCell id="wqS2Rq6UqGBICWVMVH8m-48" value="Нет" style="edgeLabel;html=1;align=center;verticalAlign=middle;resizable=0;points=[];" parent="wqS2Rq6UqGBICWVMVH8m-46" vertex="1" connectable="0">
          <mxGeometry x="-0.72" y="-3" relative="1" as="geometry">
            <mxPoint as="offset" />
          </mxGeometry>
        </mxCell>
        <mxCell id="wqS2Rq6UqGBICWVMVH8m-50" value="Да" style="edgeStyle=orthogonalEdgeStyle;rounded=0;orthogonalLoop=1;jettySize=auto;html=1;entryX=0.5;entryY=1;entryDx=0;entryDy=0;" parent="1" source="wqS2Rq6UqGBICWVMVH8m-30" target="wqS2Rq6UqGBICWVMVH8m-1" edge="1">
          <mxGeometry x="-0.7576" y="5" relative="1" as="geometry">
            <mxPoint as="offset" />
          </mxGeometry>
        </mxCell>
        <mxCell id="wqS2Rq6UqGBICWVMVH8m-51" value="2ч" style="edgeLabel;html=1;align=center;verticalAlign=middle;resizable=0;points=[];" parent="wqS2Rq6UqGBICWVMVH8m-50" vertex="1" connectable="0">
          <mxGeometry x="0.2242" y="2" relative="1" as="geometry">
            <mxPoint as="offset" />
          </mxGeometry>
        </mxCell>
        <mxCell id="wqS2Rq6UqGBICWVMVH8m-30" value="TwoHourOk" style="rounded=1;whiteSpace=wrap;html=1;" parent="1" vertex="1">
          <mxGeometry x="200" y="310" width="80" height="40" as="geometry" />
        </mxCell>
        <mxCell id="wqS2Rq6UqGBICWVMVH8m-55" value="Запись в файл сохраненных данных" style="ellipse;whiteSpace=wrap;html=1;" parent="1" vertex="1">
          <mxGeometry x="640" y="277.5" width="120" height="55" as="geometry" />
        </mxCell>
        <mxCell id="wqS2Rq6UqGBICWVMVH8m-58" value="energy&lt;br&gt;emotions&lt;br&gt;reflection" style="text;html=1;align=center;verticalAlign=middle;whiteSpace=wrap;rounded=0;" parent="1" vertex="1">
          <mxGeometry x="570" y="320" width="60" height="30" as="geometry" />
        </mxCell>
        <mxCell id="wqS2Rq6UqGBICWVMVH8m-65" style="edgeStyle=orthogonalEdgeStyle;rounded=0;orthogonalLoop=1;jettySize=auto;html=1;entryX=1;entryY=0.5;entryDx=0;entryDy=0;" parent="1" source="wqS2Rq6UqGBICWVMVH8m-60" target="wqS2Rq6UqGBICWVMVH8m-62" edge="1">
          <mxGeometry relative="1" as="geometry" />
        </mxCell>
        <mxCell id="wqS2Rq6UqGBICWVMVH8m-66" style="edgeStyle=orthogonalEdgeStyle;rounded=0;orthogonalLoop=1;jettySize=auto;html=1;entryX=0;entryY=0.5;entryDx=0;entryDy=0;" parent="1" source="wqS2Rq6UqGBICWVMVH8m-60" target="wqS2Rq6UqGBICWVMVH8m-63" edge="1">
          <mxGeometry relative="1" as="geometry" />
        </mxCell>
        <mxCell id="wqS2Rq6UqGBICWVMVH8m-67" style="edgeStyle=orthogonalEdgeStyle;rounded=0;orthogonalLoop=1;jettySize=auto;html=1;" parent="1" source="wqS2Rq6UqGBICWVMVH8m-60" target="wqS2Rq6UqGBICWVMVH8m-64" edge="1">
          <mxGeometry relative="1" as="geometry" />
        </mxCell>
        <mxCell id="wqS2Rq6UqGBICWVMVH8m-60" value="Обработчик команд" style="ellipse;whiteSpace=wrap;html=1;aspect=fixed;" parent="1" vertex="1">
          <mxGeometry x="374" y="400" width="80" height="80" as="geometry" />
        </mxCell>
        <mxCell id="wqS2Rq6UqGBICWVMVH8m-73" style="edgeStyle=orthogonalEdgeStyle;rounded=0;orthogonalLoop=1;jettySize=auto;html=1;entryX=1;entryY=0.5;entryDx=0;entryDy=0;" parent="1" source="wqS2Rq6UqGBICWVMVH8m-62" target="wqS2Rq6UqGBICWVMVH8m-72" edge="1">
          <mxGeometry relative="1" as="geometry" />
        </mxCell>
        <mxCell id="wqS2Rq6UqGBICWVMVH8m-62" value="/help" style="rounded=1;whiteSpace=wrap;html=1;" parent="1" vertex="1">
          <mxGeometry x="240" y="425" width="80" height="30" as="geometry" />
        </mxCell>
        <mxCell id="wqS2Rq6UqGBICWVMVH8m-71" style="edgeStyle=orthogonalEdgeStyle;rounded=0;orthogonalLoop=1;jettySize=auto;html=1;" parent="1" source="wqS2Rq6UqGBICWVMVH8m-63" target="wqS2Rq6UqGBICWVMVH8m-70" edge="1">
          <mxGeometry relative="1" as="geometry" />
        </mxCell>
        <mxCell id="wqS2Rq6UqGBICWVMVH8m-63" value="/restart" style="rounded=1;whiteSpace=wrap;html=1;" parent="1" vertex="1">
          <mxGeometry x="510" y="425" width="80" height="30" as="geometry" />
        </mxCell>
        <mxCell id="wqS2Rq6UqGBICWVMVH8m-75" style="edgeStyle=orthogonalEdgeStyle;rounded=0;orthogonalLoop=1;jettySize=auto;html=1;entryX=0.5;entryY=0;entryDx=0;entryDy=0;" parent="1" source="wqS2Rq6UqGBICWVMVH8m-64" target="wqS2Rq6UqGBICWVMVH8m-74" edge="1">
          <mxGeometry relative="1" as="geometry" />
        </mxCell>
        <mxCell id="wqS2Rq6UqGBICWVMVH8m-64" value="/addemotions" style="rounded=1;whiteSpace=wrap;html=1;" parent="1" vertex="1">
          <mxGeometry x="374" y="530" width="80" height="30" as="geometry" />
        </mxCell>
        <mxCell id="wqS2Rq6UqGBICWVMVH8m-77" style="edgeStyle=orthogonalEdgeStyle;rounded=0;orthogonalLoop=1;jettySize=auto;html=1;entryX=0.5;entryY=0;entryDx=0;entryDy=0;" parent="1" source="wqS2Rq6UqGBICWVMVH8m-68" target="wqS2Rq6UqGBICWVMVH8m-76" edge="1">
          <mxGeometry relative="1" as="geometry" />
        </mxCell>
        <mxCell id="wqS2Rq6UqGBICWVMVH8m-68" value="/addfunnymoment" style="rounded=1;whiteSpace=wrap;html=1;dashed=1;" parent="1" vertex="1">
          <mxGeometry x="550" y="530" width="130" height="30" as="geometry" />
        </mxCell>
        <mxCell id="wqS2Rq6UqGBICWVMVH8m-70" value="Пишет: готов? И возвращается в ReceiveAgree" style="text;html=1;align=center;verticalAlign=middle;whiteSpace=wrap;rounded=0;" parent="1" vertex="1">
          <mxGeometry x="610" y="400" width="110" height="80" as="geometry" />
        </mxCell>
        <mxCell id="wqS2Rq6UqGBICWVMVH8m-72" value="Выводит список поддерживаемых команд" style="text;html=1;align=center;verticalAlign=middle;whiteSpace=wrap;rounded=0;" parent="1" vertex="1">
          <mxGeometry x="100" y="400" width="110" height="80" as="geometry" />
        </mxCell>
        <mxCell id="wqS2Rq6UqGBICWVMVH8m-74" value="Добавляет в файл эмоции в наш день" style="text;html=1;align=center;verticalAlign=middle;whiteSpace=wrap;rounded=0;" parent="1" vertex="1">
          <mxGeometry x="359" y="585" width="111" height="45" as="geometry" />
        </mxCell>
        <mxCell id="wqS2Rq6UqGBICWVMVH8m-76" value="Добавляет в файл смешной момент" style="text;html=1;align=center;verticalAlign=middle;whiteSpace=wrap;rounded=0;" parent="1" vertex="1">
          <mxGeometry x="560" y="600" width="110" height="40" as="geometry" />
        </mxCell>
      </root>
    </mxGraphModel>
  </diagram>
</mxfile>
